<?xml version="1.0"?>
<svg xmlns="http://www.w3.org/2000/svg" viewBox="0 0 64 64" width="512" height="512"><g id="Error_404" data-name="Error 404"><path d="M59,2H5A3,3,0,0,0,2,5V59a3,3,0,0,0,3,3H59a3,3,0,0,0,3-3V5A3,3,0,0,0,59,2ZM5,4H59a1,1,0,0,1,1,1v5H4V5A1,1,0,0,1,5,4ZM59,60H5a1,1,0,0,1-1-1V12H60V59A1,1,0,0,1,59,60Z"/><path d="M7,8H8A1,1,0,0,0,8,6H7A1,1,0,0,0,7,8Z"/><path d="M12,8h1a1,1,0,0,0,0-2H12a1,1,0,0,0,0,2Z"/><path d="M17,8h1a1,1,0,0,0,0-2H17a1,1,0,0,0,0,2Z"/><path d="M32,25a6.006,6.006,0,0,0-6,6V41a6,6,0,0,0,12,0V31A6.006,6.006,0,0,0,32,25Zm4,16a4,4,0,0,1-8,0V31a4,4,0,0,1,8,0Z"/><path d="M55,39H52V26a1,1,0,0,0-2,0V39H45a1,1,0,0,1-1-1V26a1,1,0,0,0-2,0V38a3,3,0,0,0,3,3h5v5a1,1,0,0,0,2,0V41h3a1,1,0,0,0,0-2Z"/><path d="M23,39H20V26a1,1,0,0,0-2,0V39H13a1,1,0,0,1-1-1V26a1,1,0,0,0-2,0V38a3,3,0,0,0,3,3h5v5a1,1,0,0,0,2,0V41h3a1,1,0,0,0,0-2Z"/></g></svg>
