<svg id="SvgjsSvg1050" width="288" height="288" xmlns="http://www.w3.org/2000/svg" version="1.1" xmlns:xlink="http://www.w3.org/1999/xlink" xmlns:svgjs="http://svgjs.com/svgjs"><defs id="SvgjsDefs1051"></defs><g id="SvgjsG1052"><svg xmlns="http://www.w3.org/2000/svg" width="288" height="288" enable-background="new 0 0 98.736 98.736" viewBox="0 0 98.736 98.736"><path d="M26.417 56.739c0-5.115 1.688-9.838 4.528-13.656-2.974-2.673-6.893-4.313-11.205-4.313-9.272 0-16.789 7.518-16.789 16.789 0 0 3.95 35.276 16.789 35.276 4.962 0 8.592-5.274 11.184-11.739-3.025-9.953-4.248-19.888-4.488-22.026L26.417 56.739zM19.74 37.554c5.617 0 10.503-3.125 13.02-7.729-2.513-3.413-4.006-7.619-4.006-12.173 0-2.066.313-4.06.882-5.943-2.625-2.358-6.088-3.808-9.896-3.808-8.188 0-14.826 6.639-14.826 14.827C4.914 30.915 11.552 37.554 19.74 37.554zM78.996 38.77c-4.312 0-8.23 1.64-11.205 4.313 2.842 3.818 4.528 8.541 4.528 13.656l-.019.33c-.24 2.14-1.463 12.073-4.488 22.026 2.592 6.465 6.222 11.739 11.184 11.739 12.839 0 16.789-35.276 16.789-35.276C95.785 46.288 88.268 38.77 78.996 38.77zM65.977 29.824c2.517 4.604 7.401 7.729 13.02 7.729 8.188 0 14.826-6.639 14.826-14.826 0-8.188-6.639-14.827-14.826-14.827-3.809 0-7.271 1.449-9.896 3.808.568 1.884.883 3.877.883 5.943C69.982 22.205 68.489 26.411 65.977 29.824z" fill="#6b9b3c" class="color000 svgShape"></path><path d="M49.368,36.751c-11.039,0-19.988,8.949-19.988,19.988c0,0,4.704,41.997,19.988,41.997s19.987-41.997,19.987-41.997
			C69.355,45.7,60.407,36.751,49.368,36.751z" fill="#6b9b3c" class="color000 svgShape"></path><circle cx="49.368" cy="17.651" r="17.651" fill="#6b9b3c" class="color000 svgShape"></circle></svg></g></svg>