<svg width="142" height="33" viewBox="0 0 142 33" xmlns="http://www.w3.org/2000/svg"><g fill="none" fill-rule="evenodd"><path d="M36.528 27V5.688h4.78v6.797h.058c.807-1.44 2.42-2.016 4.119-2.016 1.526 0 3.34.547 4.349 1.757 1.353 1.584 1.497 2.995 1.497 5.846V27h-4.78v-8.698c0-.777 0-3.34-2.564-3.34-2.678 0-2.678 2.39-2.678 3.168V27h-4.781zm17.112-8.006c0-3.917 2.793-8.496 8.61-8.496 5.818 0 8.612 4.579 8.612 8.496 0 3.916-2.794 8.496-8.611 8.496-5.818 0-8.611-4.58-8.611-8.496zm4.78 0c0 2.332 1.757 4.032 3.83 4.032 2.074 0 3.831-1.7 3.831-4.032 0-2.333-1.757-4.032-3.83-4.032-2.074 0-3.83 1.699-3.83 4.032zM73.228 27V11.016h4.464v1.7h.058c.374-.663 1.41-2.247 4.406-2.247 1.411 0 3.34.49 4.608 2.851.98-1.555 2.62-2.851 5.069-2.851 1.123 0 2.909.259 4.205 1.613 1.497 1.584 1.728 2.65 1.728 6.192V27h-4.781v-8.496c0-1.296 0-3.542-2.448-3.542-2.65 0-2.65 2.419-2.65 3.312V27h-4.78v-8.698c0-.864 0-3.34-2.391-3.34-2.707 0-2.707 2.592-2.707 3.542V27h-4.781zm38.078-5.011h4.896c-.778 1.785-1.9 3.168-3.254 4.09a7.768 7.768 0 0 1-4.55 1.44c-4.58 0-8.468-3.716-8.468-8.468 0-4.464 3.514-8.582 8.38-8.582 4.868 0 8.44 3.859 8.44 8.726 0 .634-.058.893-.116 1.267h-11.98c.287 1.901 1.871 3.024 3.743 3.024 1.469 0 2.247-.662 2.909-1.497zm-6.595-4.752h7.257c-.201-.95-1.152-2.736-3.628-2.736-2.477 0-3.428 1.785-3.63 2.736zM119.058 27V5.688h4.78V27h-4.78zm17.6-15.984h5.07l-8.007 21.312h-5.069l2.535-6.134-5.933-15.178h5.098l3.196 9.274h.058l3.053-9.274z" fill="#3C515B"/><path d="M0 15.22c0-1.509.648-2.948 1.785-3.963l11.38-10.16a2.764 2.764 0 0 1 3.67 0l11.38 10.16A5.314 5.314 0 0 1 30 15.22v13.7c0 1.48-1.221 2.679-2.727 2.679H2.727C1.221 31.6 0 30.4 0 28.922V15.22z" fill="#FD4974" fill-rule="nonzero"/><path d="M6.3 19c2.5 2.4 5.4 3.6 8.7 3.6 3.3 0 6.2-1.2 8.7-3.6" stroke="#FFF" stroke-width="3.6"/></g></svg>
