<svg id="SvgjsSvg1026" width="288" height="288" xmlns="http://www.w3.org/2000/svg" version="1.1" xmlns:xlink="http://www.w3.org/1999/xlink" xmlns:svgjs="http://svgjs.com/svgjs"><defs id="SvgjsDefs1027"></defs><g id="SvgjsG1028"><svg xmlns="http://www.w3.org/2000/svg" width="288" height="288" enable-background="new 0 0 512 512" viewBox="0 0 512 512"><path d="M359 113h89.313l-35.593-56.95c-2.741-4.386-7.548-7.05-12.72-7.05h-41zM153 49h-41c-5.172 0-9.979 2.664-12.72 7.05l-35.593 56.95h89.313zM314 0h-116c-8.284 0-15 6.716-15 15v98h146v-98c0-8.284-6.716-15-15-15zM353 497v-162h-194v162c0 8.284 6.716 15 15 15h164c8.284 0 15-6.716 15-15z" fill="#ffffff" class="color000 svgShape"></path><path d="m17 143v241c0 8.284 6.716 15 15 15h97v-64h-17c-8.284 0-15-6.716-15-15s6.716-15 15-15h288c8.284 0 15 6.716 15 15s-6.716 15-15 15h-17v64h97c8.284 0 15-6.716 15-15v-241c-19.213 0-460.233 0-478 0zm387.359 63.34c-7.108 2.261-15.867-1.284-18.71-9.98-2.402-8.08 2.158-16.315 9.99-18.71 8.844-2.629 17.486 3.109 19.061 11.42 1.516 7.313-2.795 14.979-10.341 17.27z" fill="#ffffff" class="color000 svgShape"></path></svg></g></svg>