<svg height="512pt" viewBox="-2 0 512 512.0005" width="512pt" xmlns="http://www.w3.org/2000/svg"><path d="m507.824219 193.0625c-.003907-.195312 0-.058594 0 0-.101563-4.566406-2.34375-8.957031-6.007813-11.691406l-87.269531-65.160156v-21.003907c0-8.28125-6.71875-15-15-15h-33.21875l-103.433594-77.226562c-5.320312-3.972657-12.625-3.972657-17.949219 0l-103.429687 77.226562h-33.21875c-8.28125 0-15 6.71875-15 15v21.003907l-87.269531 65.160156c-3.742188 2.792968-6.027344 7.347656-6.027344 12.019531v303.609375c0 8.285156 6.714844 15 15 15h477.839844c8.285156 0 15-6.714844 15-15v-303.609375c0-.109375-.011719-.21875-.015625-.328125zm-93.28125-39.414062 53.445312 39.90625-53.445312 41.015624zm-160.621094-119.929688 62.261719 46.488281h-124.523438zm-130.625 76.488281h261.246094v147.382813l-119.484375 91.695312c-6.558594 5.03125-15.71875 5.03125-22.273438 0l-119.488281-91.695312zm-30 43.441407v80.917968l-53.445313-41.011718zm-63.296875 70.160156 126.269531 96.898437-126.269531 137.734375zm19.101562 258.191406 131.0625-142.957031 44.355469 34.039062c17.121094 13.140625 41.679688 13.140625 58.800781 0l44.359376-34.039062 131.0625 142.957031zm428.738282-23.558594-126.269532-137.734375 126.269532-96.898437zm0 0"/><path d="m328.667969 239.050781c0-8.285156-6.714844-15-15-15h-119.496094c-8.285156 0-15 6.714844-15 15 0 8.285157 6.714844 15 15 15h119.496094c8.285156 0 15-6.714843 15-15zm0 0"/><path d="m194.171875 194.050781h119.496094c8.285156 0 15-6.714843 15-15 0-8.285156-6.714844-15-15-15h-119.496094c-8.285156 0-15 6.714844-15 15 0 8.285157 6.714844 15 15 15zm0 0"/></svg>