<svg id="SvgjsSvg1064" width="288" height="288" xmlns="http://www.w3.org/2000/svg" version="1.1" xmlns:xlink="http://www.w3.org/1999/xlink" xmlns:svgjs="http://svgjs.com/svgjs"><defs id="SvgjsDefs1065"></defs><g id="SvgjsG1066"><svg xmlns="http://www.w3.org/2000/svg" width="288" height="288" enable-background="new 0 0 64 64" viewBox="0 0 64 64"><path fill="#f0f0f0" d="M45 19h-4v6h4v12h2v-4h4v-14zM31 33v10 15h2v-15h4v-10zM42 51h4v8h-4zM53 41h6v18h-6zM21 15h-10v10h10v-4h4v-6z" class="colorf0bc5e svgShape"></path><path d="M41 51h2v8h-2zM45 51h2v8h-2z" fill="#6b9b3c" class="color000 svgShape"></path><path d="m55 35.99v-20.99h-2v-10.181l-2 .333v-2.152h-2v2.486l-2 .333v-4.819h-2v5.153l-2 .333v-3.486h-2v3.819l-2 .333v7.848h-2v10h-8v-14h-4v-6h-2v-4h-10v4h-2v6h-4v18.685c-2.072.989-3.581 2.962-3.92 5.315h-2.08v28h62v-28.153zm-14-27.143 10-1.667v7.82h-10zm-2 8.153h14v19.276l-6 .857v5.201l-3-4-3 4v-17.334h-2zm0 12h-14v-2h14zm0 20h10v12h-10zm1-2 4-5.333 4 5.333zm-25-44h6v2h-6zm-2 4h10v4h-10zm-4 6h18v12h-4v4.685c-.911-.434-1.926-.685-3-.685h-10c-.34 0-.672.033-1 .08zm1 18h10c2.414 0 4.434 1.721 4.899 4h-19.798c.465-2.279 2.485-4 4.899-4zm17 6v2h-24v-2zm-4 18h-4v-4h4zm-6 0h-4v-4h4zm0 2v4h-4v-4zm2 0h4v4h-4zm4-8h-4v-4h4zm-6 0h-4v-4h4zm-6 0h-4v-4h4zm-4 2h4v4h-4zm0 6h4v4h-4zm18 4v-18h-20v18h-2v-20h24v20zm1.92-26c-.216-1.502-.906-2.853-1.92-3.889v-.111h14v14l-2 2.667v13.333h-8v-26zm34.08 26h-10v-13.333l-2-2.667v-6.133l12-1.714z" fill="#6b9b3c" class="color000 svgShape"></path><path d="M31 57h2v2h-2zM31 33h2v2h-2zM31 53h2v2h-2zM31 49h2v2h-2zM31 41h2v2h-2zM31 37h2v2h-2zM31 45h2v2h-2zM35 41h2v2h-2zM35 33h2v2h-2zM35 37h2v2h-2zM57 57h2v2h-2zM57 53h2v2h-2zM57 45h2v2h-2zM57 49h2v2h-2zM57 41h2v2h-2zM53 53h2v2h-2zM53 57h2v2h-2zM53 41h2v2h-2zM53 49h2v2h-2zM53 45h2v2h-2zM15 15h2v2h-2zM19 15h2v2h-2zM11 15h2v2h-2zM23 15h2v2h-2zM11 19h2v2h-2zM23 19h2v2h-2zM15 19h2v2h-2zM19 19h2v2h-2zM11 23h2v2h-2zM15 23h2v2h-2zM19 23h2v2h-2zM49 19h2v2h-2zM45 19h2v2h-2zM41 19h2v2h-2zM45 23h2v2h-2zM49 23h2v2h-2zM41 23h2v2h-2zM45 31h2v2h-2zM45 27h2v2h-2zM45 35h2v2h-2zM49 31h2v2h-2zM49 27h2v2h-2z" fill="#6b9b3c" class="color000 svgShape"></path></svg></g></svg>